<?xml version="1.0" encoding="utf-8"?>
<svg version="1.1" id="logo_1_" xmlns="http://www.w3.org/2000/svg" xmlns:xlink="http://www.w3.org/1999/xlink" x="0px" y="0px"
	 viewBox="0 0 165 42" enable-background="new 0 0 165 42" xml:space="preserve">
<g id="logo">
	<path fill="white" d="M93.3,31.5c0,0.7-0.1,1.5-0.3,2.2c-0.2,0.7-0.5,1.4-1,2c-0.4,0.6-1,1-1.8,1.4c-0.7,0.4-1.6,0.5-2.7,0.5
		c-1.1,0-2-0.2-2.7-0.5c-0.7-0.4-1.3-0.8-1.8-1.4c-0.4-0.6-0.8-1.2-1-2c-0.2-0.7-0.3-1.5-0.3-2.2V15.5h-4.5v16.1
		c0,1.5,0.3,2.9,0.8,4.2c0.5,1.2,1.2,2.3,2.2,3.2c0.9,0.9,2,1.5,3.3,2c1.2,0.5,2.6,0.7,4.1,0.7c1.5,0,2.8-0.2,4.1-0.7
		c1.2-0.5,2.3-1.1,3.2-2c0.9-0.9,1.6-1.9,2.2-3.2c0.5-1.2,0.8-2.6,0.8-4.2V15.5h-4.5V31.5z M50.8,19.5h7.8V41h4.5V19.5H71v-4H50.8
		V19.5z M43.4,28.3c-0.7-0.6-1.5-1-2.4-1.3c-0.9-0.3-1.7-0.6-2.5-0.9c-0.7-0.2-1.4-0.4-2-0.6c-0.6-0.2-1.1-0.5-1.5-0.8
		c-0.4-0.3-0.8-0.6-1-1c-0.2-0.4-0.4-0.9-0.4-1.5c0-0.6,0.1-1.2,0.4-1.6c0.3-0.4,0.6-0.8,1.1-1.1c0.4-0.3,0.9-0.5,1.4-0.6
		c0.5-0.1,1.1-0.2,1.6-0.2c0.9,0,1.8,0.2,2.6,0.6c0.9,0.4,1.6,0.9,2,1.6l3-3.2c-1-0.9-2.1-1.6-3.5-2.1c-1.3-0.5-2.6-0.7-3.9-0.7
		c-1.2,0-2.3,0.2-3.4,0.5c-1.1,0.3-2.1,0.8-3,1.4c-0.9,0.6-1.6,1.4-2.1,2.3C29.2,20,29,21.1,29,22.4c0,1.2,0.2,2.2,0.6,3
		c0.4,0.8,0.9,1.5,1.5,2c0.6,0.6,1.3,1,2.1,1.3c0.8,0.3,1.5,0.6,2.3,0.9c0.8,0.3,1.5,0.5,2.3,0.8c0.7,0.2,1.3,0.5,1.9,0.8
		c0.5,0.3,0.9,0.7,1.3,1.2c0.3,0.4,0.5,1,0.5,1.7c0,0.7-0.1,1.3-0.4,1.7c-0.3,0.5-0.6,0.9-1.1,1.2c-0.4,0.3-0.9,0.5-1.5,0.7
		c-0.6,0.1-1.1,0.2-1.6,0.2c-1,0-2-0.3-3.1-0.8c-1-0.5-1.9-1.2-2.5-2.1l-3.2,3c1,1.2,2.3,2.1,3.9,2.7c1.6,0.6,3.2,0.9,4.9,0.9
		c1.2,0,2.4-0.2,3.6-0.5c1.1-0.3,2.1-0.8,3-1.5c0.8-0.7,1.5-1.5,2-2.5c0.5-1,0.8-2.2,0.8-3.6c0-1.2-0.2-2.3-0.7-3.1
		C44.7,29.6,44.1,28.9,43.4,28.3z M16.2,31.5c0,0.7-0.1,1.5-0.3,2.2c-0.2,0.7-0.5,1.4-1,2c-0.4,0.6-1,1-1.8,1.4
		c-0.7,0.4-1.6,0.5-2.7,0.5c-1.1,0-2-0.2-2.7-0.5c-0.7-0.4-1.3-0.8-1.8-1.4c-0.4-0.6-0.8-1.2-1-2c-0.2-0.7-0.3-1.5-0.3-2.2V15.5H0.3
		v16.1c0,1.5,0.3,2.9,0.8,4.2c0.5,1.2,1.2,2.3,2.2,3.2c0.9,0.9,2,1.5,3.3,2c1.2,0.5,2.6,0.7,4.1,0.7c1.5,0,2.8-0.2,4.1-0.7
		c1.2-0.5,2.3-1.1,3.2-2c0.9-0.9,1.6-1.9,2.2-3.2c0.5-1.2,0.8-2.6,0.8-4.2V15.5h-4.5V31.5z M136.2,9.2c1.2,0.4,2.4,0.7,3.6,1.1
		c0.2,0.1,0.3,0,0.4,0.1c1.7,0.6,3.4,1,5.1,1.6c0.3,0.1,0.6-0.1,0.8-0.1c0.7-0.2,1.4-0.4,2-0.6c2.6-0.8,5.3-1.5,7.8-2.3
		c1.6-0.5,3.2-0.9,4.8-1.4c0.6-0.2,1.4-0.3,1.9-0.5c0.2-0.1,0.3-0.4,0.5-0.6c0-1.2-0.7-1.1-1.6-1.4c-0.6-0.2-1.3-0.4-1.9-0.6
		c-0.2,0-0.4-0.1-0.7-0.1c-2.2-0.8-4.7-1.3-6.9-2.1c-0.8-0.3-1.6-0.4-2.4-0.7c-0.8-0.3-1.7-0.4-2.5-0.7c-0.6-0.2-1.1-0.5-1.9-0.4
		c-0.2,0.2-0.5,0.1-0.8,0.2c-0.9,0.3-1.9,0.5-2.8,0.8c-3.2,1.1-6.7,1.9-9.9,3c-1,0.3-2,0.6-3,0.9c-0.5,0.2-0.6,0.2-0.8,0.7
		c0,0.1-0.1,0.1-0.1,0.3c0.2,1,1.3,0.9,2.2,1.2c1.4,0.5,3,0.8,4.4,1.3C135.1,9,135.7,9,136.2,9.2z M125.4,18.3
		c-1.3-1-2.9-1.7-4.5-2.1c-1.7-0.4-3.3-0.6-5-0.6h-9V41h9c1.7,0,3.3-0.2,5-0.7c1.7-0.5,3.2-1.3,4.5-2.3c1.3-1,2.4-2.4,3.3-4
		c0.8-1.6,1.3-3.5,1.3-5.8c0-2.4-0.4-4.4-1.3-6C127.8,20.6,126.7,19.3,125.4,18.3z M124.2,32.6c-0.6,1.1-1.4,2-2.3,2.7
		c-0.9,0.7-2,1.1-3.2,1.4c-1.2,0.3-2.4,0.4-3.5,0.4h-3.8V19.4h3.8c1.2,0,2.4,0.1,3.5,0.4c1.2,0.2,2.2,0.7,3.2,1.3
		c0.9,0.6,1.7,1.5,2.3,2.7c0.6,1.2,0.9,2.6,0.9,4.5C125.1,30,124.8,31.4,124.2,32.6z M145.2,26.3l-6.4-10.7h-5.5l9.6,14.4V41h4.5V30
		l9.6-14.4h-5.3L145.2,26.3z M164.9,19.9c-0.1-0.4-0.5-0.8-0.7-1.1c-0.2-0.3-0.3-0.7-0.5-1c0-0.1-0.2-0.2-0.2-0.3v-5
		c0-1.6,0.1-2.8-1.4-2.9c-0.1,0.1-0.3,0.1-0.4,0.1c-0.4,0.2-0.7,0.6-0.8,1v6.8c-0.1,0.2-0.3,0.4-0.4,0.6c-0.3,0.5-0.5,0.9-0.7,1.4
		c-0.1,0.2-0.4,0.5-0.3,0.9c0.2,1.4,1.6,1.1,3.2,1.1h1.6C164.6,21.1,165.2,20.6,164.9,19.9z"/>
</g>
</svg>
